<svg width="647" height="255" viewBox="0 0 647 255" fill="none" xmlns="http://www.w3.org/2000/svg">
<g clip-path="url(#clip0_53_3)">
<mask id="mask0_53_3" style="mask-type:luminance" maskUnits="userSpaceOnUse" x="0" y="0" width="647" height="255">
<path d="M647 0H0V255H647V0Z" fill="white"/>
</mask>
<g mask="url(#mask0_53_3)">
<path d="M6.40527 0H108.9C130.128 0 147.336 17.1251 147.336 38.25V140.25H44.8409C23.6135 140.25 6.40527 123.125 6.40527 102V0Z" fill="#392994"/>
<path d="M38.4377 114.749V25.4988H74.5089C86.9604 25.4988 96.5253 27.6183 103.205 31.8574C109.885 36.0453 113.225 42.1486 113.225 50.1671C113.225 54.6614 111.996 58.6196 109.538 62.0415C107.133 65.4122 103.659 67.8893 99.1175 69.4726C104.354 70.7494 108.362 73.1755 111.14 76.7508C113.92 80.3256 115.309 84.4625 115.309 89.1616C115.309 97.9965 112.129 104.483 105.77 108.62C99.4107 112.706 90.1663 114.749 78.0354 114.749H38.4377ZM61.6835 77.5935V96.9753H78.0354C82.5246 96.9753 85.9982 96.1326 88.4557 94.4478C90.9143 92.7109 92.143 90.4384 92.143 87.6286C92.143 81.1427 88.0556 77.7975 79.879 77.5935H61.6835ZM61.6835 62.6547H75.9513C85.3038 62.6547 89.9794 59.5389 89.9794 53.308C89.9794 49.7329 88.8302 47.2048 86.5325 45.7237C84.2881 44.1915 80.8412 43.4255 76.1917 43.4255H61.6835V62.6547Z" fill="white"/>
<path d="M339.516 0H442.011C463.238 0 480.447 17.1251 480.447 38.25V140.25H377.952C356.724 140.25 339.516 123.125 339.516 102V0Z" fill="#392994"/>
<path d="M426.315 88.4678C426.315 85.3782 425.016 82.9023 422.419 81.0384C419.822 79.1746 415.397 77.4963 409.144 76.0054C402.89 74.514 397.616 72.9425 393.324 71.2921C389.085 69.5877 385.586 67.5904 382.831 65.3002C380.076 63.0105 378.034 60.3739 376.709 57.3916C375.385 54.3559 374.723 50.761 374.723 46.6068C374.723 38.618 378.034 32.0407 384.659 26.8746C391.284 21.7086 399.817 19.1256 410.256 19.1256C421.65 19.1256 430.846 21.7353 437.841 26.9545C444.89 32.1206 448.414 39.2039 448.414 48.2045H425.44C425.44 44.796 424.062 41.9467 421.307 39.6566C418.603 37.3665 414.947 36.2215 410.336 36.2215C406.255 36.2215 402.943 37.1269 400.4 38.9376C397.855 40.7484 396.584 43.0119 396.584 45.728C396.584 48.4442 397.909 50.6545 400.558 52.3586C403.208 54.0097 407.607 55.6074 413.755 57.1519C426.103 59.8681 434.926 63.6225 440.226 68.4159C445.579 73.2093 448.255 79.6798 448.255 87.8285C448.255 96.1368 444.996 102.714 438.477 107.561C431.959 112.354 423.055 114.751 411.767 114.751C404.082 114.751 397.14 113.499 390.939 110.996C384.739 108.493 379.943 104.924 376.551 100.291C373.212 95.6576 371.543 90.1716 371.543 83.8345H394.596C394.596 88.7869 396.106 92.3557 399.127 94.5392C402.201 96.7227 406.785 97.8151 412.88 97.8151C417.013 97.8151 420.273 96.9623 422.658 95.2585C425.096 93.5536 426.315 91.2906 426.315 88.4678Z" fill="white"/>
<path d="M313.891 0H211.396C190.169 0 172.961 17.1251 172.961 38.25V140.25H275.456C296.683 140.25 313.891 123.125 313.891 102V0Z" fill="#392994"/>
<path d="M260.192 97.7415H226.43L220.292 114.749H198.582L233.093 25.4988H253.455L288.265 114.749H266.405L260.192 97.7415ZM232.269 81.4997H254.203L243.199 51.3162L232.269 81.4997Z" fill="white"/>
<path d="M647 0H544.508C523.28 0 506.072 17.1251 506.072 38.25V140.25H608.566C629.792 140.25 647 123.125 647 102V0Z" fill="#392994"/>
<path d="M614.971 25.4988V82.48C614.971 92.5057 611.593 100.39 604.838 106.133C598.089 111.877 588.692 114.749 576.652 114.749C564.664 114.749 555.242 111.877 548.384 106.133C541.527 100.39 538.098 92.5306 538.098 82.5553V25.4988H560.869V83.6133C561.183 92.6818 566.444 97.216 576.652 97.216C581.729 97.216 585.577 96.0828 588.194 93.8151C590.864 91.5485 592.199 87.8202 592.199 82.6306V25.4988H614.971Z" fill="white"/>
<path d="M627.78 165.75H19.2178C8.60409 165.75 0 174.313 0 184.875V235.875C0 246.437 8.60409 255 19.2178 255H627.78C638.393 255 647 246.437 647 235.875V184.875C647 174.313 638.393 165.75 627.78 165.75Z" fill="#E96627"/>
<path d="M76.3044 219.432C75.8087 224.981 73.619 229.31 69.7358 232.419C65.8823 235.498 60.7882 237.038 54.453 237.038C47.5633 237.038 42.1041 234.859 38.0754 230.501C34.0466 226.143 32.0322 220.086 32.0322 212.328V209.365C32.0322 204.455 32.9518 200.155 34.7911 196.466C36.6303 192.747 39.2723 189.885 42.7172 187.881C46.1621 185.876 50.1616 184.874 54.7158 184.874C60.9633 184.874 65.9844 186.457 69.7798 189.624C73.5745 192.791 75.7642 197.192 76.3483 202.828H65.7072C65.3564 199.575 64.2618 197.192 62.4229 195.682C60.6131 194.142 58.0439 193.372 54.7158 193.372C46.6875 193.372 42.6734 198.746 42.6734 209.496V212.634C42.6734 218.008 43.6513 222.018 45.6074 224.661C47.5633 227.277 50.5119 228.583 54.453 228.583C57.9563 228.583 60.6131 227.872 62.4229 226.448C64.2328 225.025 65.3279 222.686 65.7072 219.432H76.3044Z" fill="white"/>
<path d="M137.605 227.887H161.909V236.341H126.964V185.572H137.605V227.887Z" fill="white"/>
<path d="M242.74 225.49H221.633L217.472 236.341H206.744L227.369 185.572H237.134L257.672 236.341H246.899L242.74 225.49ZM224.741 217.428H239.63L232.186 198.166L224.741 217.428Z" fill="white"/>
<path d="M334.609 223.005C334.609 221.089 333.85 219.563 332.332 218.43C330.814 217.268 327.822 216.134 323.355 215.031C318.918 213.927 315.414 212.662 312.845 211.239C310.276 209.815 308.379 208.16 307.153 206.271C305.956 204.354 305.357 202.058 305.357 199.386C305.357 195.144 307.153 191.672 310.743 188.97C314.335 186.24 318.976 184.874 324.669 184.874C330.8 184.874 335.719 186.327 339.426 189.232C343.134 192.137 344.988 195.914 344.988 200.562H334.347C334.347 198.209 333.471 196.364 331.719 195.028C329.968 193.662 327.617 192.98 324.669 192.98C321.896 192.98 319.706 193.546 318.1 194.679C316.495 195.784 315.692 197.265 315.692 199.125C315.692 200.809 316.509 202.204 318.144 203.308C319.808 204.412 322.728 205.472 326.902 206.489C333.354 208.058 337.982 210.135 340.784 212.721C343.587 215.307 344.988 218.662 344.988 222.788C344.988 227.232 343.178 230.719 339.558 233.247C335.938 235.774 331.15 237.038 325.195 237.038C321.166 237.038 317.473 236.37 314.116 235.033C310.787 233.668 308.204 231.75 306.364 229.281C304.525 226.812 303.606 223.936 303.606 220.652H314.29C314.29 226.231 318.028 229.02 325.501 229.02C328.333 229.02 330.551 228.482 332.157 227.407C333.792 226.333 334.609 224.865 334.609 223.005Z" fill="white"/>
<path d="M424.504 223.005C424.504 221.089 423.745 219.563 422.227 218.43C420.709 217.268 417.717 216.134 413.25 215.031C408.813 213.927 405.309 212.662 402.74 211.239C400.172 209.815 398.274 208.16 397.047 206.271C395.851 204.354 395.252 202.058 395.252 199.386C395.252 195.144 397.047 191.672 400.638 188.97C404.229 186.24 408.871 184.874 414.564 184.874C420.694 184.874 425.613 186.327 429.321 189.232C433.029 192.137 434.883 195.914 434.883 200.562H424.241C424.241 198.209 423.365 196.364 421.614 195.028C419.863 193.662 417.513 192.98 414.564 192.98C411.791 192.98 409.601 193.546 407.995 194.679C406.39 195.784 405.586 197.265 405.586 199.125C405.586 200.809 406.404 202.204 408.039 203.308C409.703 204.412 412.622 205.472 416.797 206.489C423.249 208.058 427.876 210.135 430.679 212.721C433.481 215.307 434.883 218.662 434.883 222.788C434.883 227.232 433.073 230.719 429.452 233.247C425.832 235.774 421.044 237.038 415.089 237.038C411.06 237.038 407.367 236.37 404.01 235.033C400.682 233.668 398.098 231.75 396.26 229.281C394.42 226.812 393.501 223.936 393.501 220.652H404.186C404.186 226.231 407.922 229.02 415.396 229.02C418.227 229.02 420.447 228.482 422.052 227.407C423.687 226.333 424.504 224.865 424.504 223.005Z" fill="white"/>
<path d="M518.477 214.377H496.494V227.887H522.243V236.341H485.853V185.572H522.112V194.113H496.494V205.879H518.477V214.377Z" fill="white"/>
<path d="M600.624 223.005C600.624 221.089 599.864 219.563 598.344 218.43C596.831 217.268 593.839 216.134 589.37 215.031C584.933 213.927 581.43 212.662 578.86 211.239C576.292 209.815 574.394 208.16 573.168 206.271C571.971 204.354 571.372 202.058 571.372 199.386C571.372 195.144 573.168 191.672 576.758 188.97C580.349 186.24 584.991 184.874 590.684 184.874C596.813 184.874 601.734 186.327 605.444 189.232C609.148 192.137 611.005 195.914 611.005 200.562H600.363C600.363 198.209 599.484 196.364 597.733 195.028C595.982 193.662 593.631 192.98 590.684 192.98C587.911 192.98 585.721 193.546 584.115 194.679C582.51 195.784 581.707 197.265 581.707 199.125C581.707 200.809 582.524 202.204 584.159 203.308C585.823 204.412 588.743 205.472 592.917 206.489C599.371 208.058 603.995 210.135 606.797 212.721C609.605 215.307 611.005 218.662 611.005 222.788C611.005 227.232 609.195 230.719 605.574 233.247C601.953 235.774 597.163 237.038 591.21 237.038C587.181 237.038 583.488 236.37 580.13 235.033C576.802 233.668 574.218 231.75 572.38 229.281C570.54 226.812 569.621 223.936 569.621 220.652H580.306C580.306 226.231 584.042 229.02 591.516 229.02C594.35 229.02 596.564 228.482 598.172 227.407C599.805 226.333 600.624 224.865 600.624 223.005Z" fill="white"/>
</g>
</g>
<defs>
<clipPath id="clip0_53_3">
<rect width="647" height="255" fill="white"/>
</clipPath>
</defs>
</svg>
